<svg t="1671606760360" class="icon" viewBox="0 0 1024 1024" version="1.1" xmlns="http://www.w3.org/2000/svg" p-id="1760" width="200" height="200"><path d="M136.3 365.1l309.4 133.2c21.2 9.1 43.7 13.7 66.3 13.7 22.5 0 45.1-4.6 66.3-13.7l309.4-133.2c52.4-22.6 52.4-98.7 0-121.3L578.3 110.7C557.1 101.6 534.5 97 512 97s-45.1 4.6-66.3 13.7L136.3 243.9c-52.4 22.5-52.4 98.7 0 121.2z m16.4-83.1l309.4-133.2c15.9-6.8 32.7-10.3 49.9-10.3 17.2 0 34 3.5 49.9 10.3L871.3 282c12.8 5.5 14.2 17.6 14.2 22.5 0 4.9-1.4 17-14.2 22.5L561.9 460.2c-15.9 6.8-32.7 10.3-49.9 10.3-17.2 0-34-3.5-49.9-10.3L152.7 327c-12.8-5.5-14.2-17.6-14.2-22.5 0-4.9 1.4-17 14.2-22.5zM879.5 532.9L570.1 666.1c-36.9 15.9-79.3 15.9-116.2 0L144.5 532.9c-10.5-4.5-22.7 0.3-27.3 10.9-4.5 10.5 0.3 22.7 10.9 27.3l309.4 133.2c23.7 10.2 49.1 15.3 74.5 15.3s50.8-5.1 74.5-15.3L895.9 571c10.5-4.5 15.4-16.7 10.9-27.3-4.6-10.5-16.9-15.3-27.3-10.8zM879.5 740.4L570.1 873.6c-36.9 15.9-79.3 15.9-116.2 0L144.5 740.4c-10.5-4.5-22.7 0.3-27.3 10.9-4.5 10.5 0.3 22.7 10.9 27.3l309.4 133.2c23.7 10.2 49.1 15.3 74.5 15.3s50.8-5.1 74.5-15.3l309.4-133.2c10.5-4.5 15.4-16.7 10.9-27.3-4.6-10.6-16.9-15.4-27.3-10.9z" p-id="1761" fill="#707070"></path></svg>
