<svg t="1662703825427" class="icon" viewBox="0 0 1026 1024" version="1.1" xmlns="http://www.w3.org/2000/svg" p-id="5658"
     width="200" height="200">
  <path
    d="M972.067982 946.325604H49.546624V23.804245c0-12.881128-10.913178-23.804245-23.794307-23.804245A23.784367 23.784367 0 0 0 1.948072 23.804245v945.749134c0 13.447659 10.356586 24.360837 23.804245 24.360838h946.315665c13.159424 0 23.804245-10.923117 23.804246-24.360838-0.009939-12.314597-10.644821-23.227775-23.804246-23.227775z m-532.797655-39.478273h176.380017c22.12453 0 39.756569-17.920273 39.756569-39.478272V92.960797c0-21.557999-17.632038-39.199977-39.756569-39.199977H439.270327a39.130403 39.130403 0 0 0-39.190037 39.199977v774.418201c0 21.54806 17.353742 39.468334 39.190037 39.468333z m39.199977-774.129966h97.990003V827.900725H478.470304V132.717365zM136.335213 906.847331h176.668252c21.557999 0 39.478273-17.920273 39.478273-39.478272V594.390519c0-22.12453-17.920273-39.756569-39.478273-39.756569H136.335213c-21.836295 0-39.190038 17.632038-39.190037 39.756569v272.97854c0 21.557999 17.363681 39.478273 39.190037 39.478272z m39.756569-273.256835h97.43341v194.310229h-97.43341V633.590496z m566.113659 273.256835H918.873693c21.557999 0 39.190038-17.920273 39.190038-39.478272V303.779941c0-21.557999-17.632038-39.756569-39.190038-39.756568H742.205441c-21.826356 0-39.756569 18.198569-39.756568 39.756568v563.589118c0 21.557999 17.930212 39.478273 39.756568 39.478272z m39.756569-563.589117h97.155115V827.900725h-97.155115V343.258214z"
    p-id="5659"></path>
</svg>
