<svg t="1663229314656" class="icon" viewBox="0 0 1024 1024" version="1.1" xmlns="http://www.w3.org/2000/svg" p-id="3252" width="200" height="200"><path d="M594.432 855.04H441.856l-0.512 98.304H161.792v3.072c0 11.264 38.4 41.984 50.176 51.2l1.024 0.512H849.92v3.072l4.608-3.584c11.776-9.216 50.176-39.936 50.176-51.712v-3.072h-310.272V855.04zM1003.52 71.68c-0.512-20.48-21.504-52.224-52.224-52.224H66.56C33.28 19.456 14.336 38.4 14.336 71.68v688.128c0 28.672 28.16 51.712 52.224 52.224h884.736c28.672-0.512 51.2-28.16 52.224-52.224V71.68z m-55.296 638.976c0 27.136-18.944 46.08-46.08 46.08H115.712c-13.312 0-25.6-4.608-33.792-13.312-8.192-8.192-12.8-19.968-12.288-32.768V120.832c0-22.528 16.384-46.08 46.08-46.08h787.968c12.288 0 23.552 4.608 32.256 13.312 8.704 8.704 13.312 20.48 12.8 32.768v589.824z" p-id="3253"></path><path d="M399.872 675.84c-6.144 0-12.288-1.024-17.92-3.072-13.312-4.608-23.552-14.336-29.184-27.136-5.632-12.8-6.144-26.624-1.536-39.936 6.144-16.896 20.992-29.184 38.4-32.768l35.84-97.792C394.24 452.608 378.88 414.72 384.512 377.344l-115.2-43.008c-9.728 10.752-24.064 16.896-38.4 16.896-6.144 0-12.288-1.024-17.92-3.072-13.312-5.12-23.552-14.336-29.184-27.136-5.632-12.8-6.144-26.624-1.536-39.936 7.68-20.48 27.136-34.304 49.152-34.304 6.144 0 12.288 1.024 17.92 3.072 13.824 5.12 24.576 15.36 29.696 28.672l129.536 47.616c19.456-22.016 47.104-34.816 76.8-34.816 2.56 0 5.12 0 8.192 0.512l18.944-51.2c-11.264-14.336-14.336-33.28-7.68-50.176 7.68-20.48 27.136-34.304 48.64-34.304 6.144 0 12.288 1.024 17.92 3.072 12.8 4.608 23.552 14.336 29.184 27.136 5.632 12.8 6.656 26.624 1.536 39.936-6.144 16.896-20.992 29.184-38.4 32.768l-18.944 51.712c26.112 18.944 41.472 49.152 41.472 80.896l123.904 46.08c13.824-12.8 32.256-19.456 51.2-19.456 9.216 0 17.92 1.536 26.624 4.608 39.424 14.848 59.904 58.88 45.568 98.816-11.264 30.208-39.936 50.176-72.192 50.176-9.216 0-17.92-1.536-26.624-4.608-32.768-12.288-53.248-45.056-49.664-79.872L571.392 445.44c-17.92 30.208-51.2 48.64-86.528 48.64-2.56 0-5.12 0-8.192-0.512l-35.84 97.792c10.752 13.824 13.824 33.28 7.68 50.176-7.68 20.48-27.136 34.304-48.64 34.304z" p-id="3254"></path></svg>
