<?xml version="1.0" standalone="no"?><!DOCTYPE svg PUBLIC "-//W3C//DTD SVG 1.1//EN" "http://www.w3.org/Graphics/SVG/1.1/DTD/svg11.dtd"><svg t="1668651057354" class="icon" viewBox="0 0 1024 1024" version="1.1" xmlns="http://www.w3.org/2000/svg" p-id="1437" xmlns:xlink="http://www.w3.org/1999/xlink" width="200" height="200"><path d="M742.96 358.11V156.06c0-19.04-10.17-36.64-26.67-46.14L540.07 8.45a53.25 53.25 0 0 0-53.14 0L310.72 109.92a53.246 53.246 0 0 0-26.67 46.14v202.06c0 19.04 10.17 36.64 26.67 46.14l176.22 101.47a53.25 53.25 0 0 0 53.14 0l176.21-101.47a53.262 53.262 0 0 0 26.67-46.15z m-65.1-6.6l-163.72 94.1-163.71-94.1v-188.2L480.62 87.9h0.65v78.64l32.87 18.69 32.87-18.69V87.89l130.84 75.41v188.21zM434.55 620.65L258.33 519.18a53.25 53.25 0 0 0-53.14 0L28.98 620.65a53.246 53.246 0 0 0-26.67 46.14v202.06c0 19.04 10.17 36.64 26.67 46.14l176.22 101.47a53.25 53.25 0 0 0 53.14 0l176.21-101.47c16.5-9.5 26.67-27.1 26.67-46.14V666.79c0-19.04-10.17-36.64-26.67-46.14z m-38.42 241.6l-163.72 94.1-163.71-94.1V674.04l130.19-75.41h0.65v78.64l32.87 18.69 32.87-18.69v-78.64l130.84 75.41v188.21z m600.42-242.6L820.33 518.18a53.25 53.25 0 0 0-53.14 0L590.98 619.65a53.246 53.246 0 0 0-26.67 46.14v202.06c0 19.04 10.17 36.64 26.67 46.14l176.22 101.47a53.25 53.25 0 0 0 53.14 0l176.21-101.47c16.5-9.5 26.67-27.1 26.67-46.14V665.79c0-19.04-10.17-36.64-26.67-46.14z m-38.42 241.6l-163.72 94.1-163.71-94.1V673.04l130.19-75.41h0.65v78.64l32.87 18.69 32.87-18.69v-78.64l130.84 75.41v188.21z" p-id="1438"></path></svg>