<?xml version="1.0" standalone="no"?><!DOCTYPE svg PUBLIC "-//W3C//DTD SVG 1.1//EN" "http://www.w3.org/Graphics/SVG/1.1/DTD/svg11.dtd"><svg t="1666576443684" class="icon" viewBox="0 0 1027 1024" version="1.1" xmlns="http://www.w3.org/2000/svg" p-id="714" xmlns:xlink="http://www.w3.org/1999/xlink" width="200.5859375" height="200"><path d="M505.917174 1005.714286C228.632603 1005.714286 3.03565 780.141714 3.03565 502.857143S228.632603 0 505.917174 0c277.284571 0 502.857143 225.572571 502.857143 502.857143S783.201745 1005.714286 505.917174 1005.714286z m0-942.933334c-242.663619 0-440.100571 197.412571-440.100571 440.076191 0 242.663619 197.436952 440.100571 440.100571 440.100571 242.663619 0 440.07619-197.436952 440.076191-440.100571 0-242.663619-197.412571-440.07619-440.076191-440.076191z m246.662095 459.337143a26.185143 26.185143 0 0 1-31.987809-18.578285l-31.500191-118.881524-79.384381 181.101714a52.516571 52.516571 0 0 1-31.987809 29.42781 54.613333 54.613333 0 0 1-44.348953-5.168762l-115.346285-66.998858a3.657143 3.657143 0 0 0-1.804191-0.658285c0.048762 0.024381-0.097524 0.219429-0.26819 0.585143l-88.210286 187.806476a26.160762 26.160762 0 0 1-47.347809-22.235429l88.210285-187.806476c6.485333-13.824 17.871238-23.893333 32.012191-28.306286a54.125714 54.125714 0 0 1 43.715047 5.36381l115.321905 67.023238c0.975238 0.560762 1.77981 0.633905 1.828572 0.658286-0.048762-0.024381 0.121905-0.26819 0.316952-0.682667l80.091428-182.735238-123.318857 32.694857a26.160762 26.160762 0 1 1-13.409523-50.566095l166.887619-44.227048a46.665143 46.665143 0 0 1 35.693714 4.827429c10.898286 6.314667 18.651429 16.481524 21.869714 28.623238l41.545143 156.745143a26.136381 26.136381 0 0 1-18.578286 31.987809z" p-id="715"></path></svg>