<?xml version="1.0" standalone="no"?><!DOCTYPE svg PUBLIC "-//W3C//DTD SVG 1.1//EN" "http://www.w3.org/Graphics/SVG/1.1/DTD/svg11.dtd"><svg t="1662703231534" class="icon" viewBox="0 0 1024 1024" version="1.1" xmlns="http://www.w3.org/2000/svg" p-id="754" xmlns:xlink="http://www.w3.org/1999/xlink" width="200" height="200"><path d="M509.605612 443.859704c34.41933 0 64.349182 29.830086 64.349181 64.349181 0 34.41933-29.830086 64.349182-64.349181 64.349182-34.41933 0-64.349182-29.830086-64.349182-64.349182s27.535464-64.349182 64.349182-64.349181z m-4.589244 578.843336c135.482463 0 264.180826-52.876072 360.654715-149.349961 98.768511-98.768511 151.644583-225.072486 151.644583-362.949338 0-135.482463-52.876072-264.180826-149.349961-360.654715C771.39205 53.374903 642.793453 0.498831 507.31099 0.498831 263.781761-1.795791 57.066251 170.50039 6.484801 404.751364h80.411536c41.303196-170.001559 183.769291-300.894778 356.065471-326.13562l9.178488-2.294622v29.830086h112.536243V80.910366l9.178488 2.294622c183.769291 29.830086 328.530008 174.590803 358.360094 358.360094l2.294622 9.178488h-29.830086v112.536243h29.830086l-2.294622 9.178488c-13.767732 91.884645-55.170694 174.590803-119.420109 241.234606C748.44583 877.942323 665.739673 921.639906 573.855027 935.407638l-9.178488 2.294622v-34.419329H452.140296v36.713951l-9.178488-2.294622c-119.420109-20.651598-227.367108-87.295401-294.010912-183.76929H57.066251c91.884645 165.412315 264.180826 268.77007 447.950117 268.77007zM486.559626 133.686672h45.992206v89.590023h-45.992206V133.686672z m0 96.473889h45.992206v89.590024h-45.992206v-89.590024z m0 96.47389h45.992206v89.590023h-45.992206v-89.590023z m303.289166 149.349961H877.144193v45.892439h-87.295401v-45.892439z m-96.473889 0h89.590023v45.892439h-89.590023v-45.892439z m-96.47389 2.294622h89.590024v45.892439h-89.590024v-45.892439zM486.559626 583.931411h45.992206v89.590023h-45.992206v-89.590023z m0 96.473889h45.992206v89.590023h-45.992206V680.4053z m0 98.768511h45.992206v89.590024h-45.992206V779.173811z m0 0" p-id="755"></path><path d="M283.036633 592.710834m-17.858145 0a17.858145 17.858145 0 1 0 35.71629 0 17.858145 17.858145 0 1 0-35.71629 0Z" p-id="756"></path><path d="M355.566641 677.911146m-23.844116 0a23.844115 23.844115 0 1 0 47.688231 0 23.844115 23.844115 0 1 0-47.688231 0Z" p-id="757"></path><path d="M371.928293 802.818394m-17.45908 0a17.45908 17.45908 0 1 0 34.91816 0 17.45908 17.45908 0 1 0-34.91816 0Z" p-id="758"></path><path d="M253.805144 739.666407m-23.44505 0a23.445051 23.445051 0 1 0 46.890101 0 23.445051 23.445051 0 1 0-46.890101 0Z" p-id="759"></path><path d="M645.786438 234.749805m-23.844115 0a23.844115 23.844115 0 1 0 47.68823 0 23.844115 23.844115 0 1 0-47.68823 0Z" p-id="760"></path><path d="M671.925175 354.26968m-39.507404 0a39.507405 39.507405 0 1 0 79.014809 0 39.507405 39.507405 0 1 0-79.014809 0Z" p-id="761"></path><path d="M775.981294 277.64926m-18.057677 0a18.057677 18.057677 0 1 0 36.115354 0 18.057677 18.057677 0 1 0-36.115354 0Z" p-id="762"></path><path d="M793.839439 386.194856m-23.445051 0a23.445051 23.445051 0 1 0 46.890101 0 23.445051 23.445051 0 1 0-46.890101 0Z" p-id="763"></path></svg>