<svg t="1670551801014" class="icon" viewBox="0 0 1024 1024" version="1.1" xmlns="http://www.w3.org/2000/svg" p-id="718" width="200" height="200"><path d="M486.333 481.408a6.747 6.747 0 0 0-6.784 6.784v130.304c0 3.773 3.006 6.723 6.784 6.723h44.678c3.712 0 6.778-3.006 6.778-6.723V488.192c0-3.84-3.005-6.784-6.778-6.784h-44.678z m24.71 290.688l-73.027 70.4c-9.472 9.155-24.51 9.155-33.92 0l-72.96-70.4c-10.88-10.496-28.093-10.496-38.973 0l-69.76 67.395c-9.472 9.021-24.515 9.021-33.92 0l-32.512-31.36c-4.803-4.608-7.486-11.008-7.486-17.603V204.483c0-26.368 21.504-47.806 47.806-47.806 0.194 0 0.384-0.066 0.578-0.066 0.256 0 0.512 0.066 0.768 0.066h0.128c27.843 0.128 50.432 21.566 50.432 47.806 0 26.434-22.722 47.805-50.626 47.805-15.616 0-28.16 12.605-28.16 28.099 0 15.488 12.605 28.093 28.098 28.093h471.424c13.502 0 24.382 10.88 24.382 24.387v205.122c0 13.507 10.88 24.51 24.386 24.51h7.363c13.506 0 24.448-11.003 24.448-24.51V321.987c0-9.667 5.826-18.627 14.653-22.4 37.632-16.128 64-52.736 64-95.232 0-57.406-48-104.064-106.88-104.064H195.907c-57.411 0-104.064 46.658-104.064 104.064v608.317c0 7.619 3.072 14.848 8.576 20.224l84.992 81.987c10.88 10.496 28.16 10.496 38.978 0l69.822-67.39c9.472-9.154 24.514-9.154 33.858 0l73.022 70.4c10.88 10.496 28.226 10.496 39.106 0l73.022-70.4c9.477-9.154 24.514-9.154 33.853 0 15.488 14.976 41.41 4.03 41.41-17.602l0.318-20.419-38.784-37.376a28.055 28.055 0 0 0-38.973 0z m-218.63-615.49H721.47c27.904 0 50.56 21.503 50.56 47.805 0 26.306-22.589 47.938-50.493 47.938H292.413c7.68-14.336 12.032-30.592 12.032-47.805-0.061-17.341-4.352-33.664-12.032-47.939z m50.694 280.514c-3.907-3.133-9.6-2.493-12.672 1.28-3.139 3.907-2.499 9.6 1.408 12.8l77.184 62.525c1.664 1.408 3.712 1.982 5.693 1.982 2.493 0 5.12-1.086 6.784-3.072l98.688-113.47 15.237 12.672c1.152 0.963 2.75 1.536 4.286 1.536 0.9 0 1.797-0.189 2.754-0.512 2.243-1.024 3.907-3.2 4.03-5.76l3.077-46.402a7.079 7.079 0 0 0-2.37-5.699c-1.731-1.408-3.907-1.853-6.017-1.408l-45.122 11.392c-2.499 0.64-4.352 2.622-4.992 5.12-0.579 2.494 0.384 5.12 2.365 6.723l12.733 10.685-92.672 106.624-70.394-57.016z m-78.854 217.283c0 6.144 5.12 11.264 11.264 11.264H571.71c6.278 0 11.331-5.12 11.331-11.264-0.128-6.272-5.12-11.392-11.453-11.392H275.523c-6.211 0-11.27 5.12-11.27 11.392zM992.19 814.269c-6.138-30.72-62.525-46.72-118.272-46.72h-2.432V649.851c0-34.366-59.842-52.352-118.917-52.352-59.07 0-118.845 17.986-118.845 52.352v185.738c0 34.243 59.842 52.224 118.845 52.224h2.437v24.894c0 34.365 59.843 52.352 118.912 52.352s118.851-17.987 118.851-52.352v-98.31l-0.579-0.128zM662.211 684.99c9.6 4.742 21.12 8.515 33.792 11.264 11.33 2.494 23.424 4.224 35.968 5.12 6.845 0.518 13.762 0.768 20.736 0.768 6.845 0 13.885-0.256 20.802-0.768 12.483-0.896 24.576-2.626 35.963-5.12 12.544-2.749 24.13-6.656 33.73-11.264 5.31 3.907 8.131 7.747 8.131 11.264s-2.882 7.491-8.13 11.264c-2.883 2.243-6.656 4.352-11.136 6.528-4.096 1.854-9.027 3.774-14.531 5.5-16.573 4.996-38.656 8.642-64.896 8.642-26.173 0-48.256-3.646-64.896-8.643-5.504-1.725-10.307-3.645-14.53-5.499-4.353-2.114-8.126-4.224-11.137-6.528-5.053-3.906-8.002-7.746-8.002-11.264s2.949-7.357 8.136-11.264z m0 46.403c9.6 4.741 21.12 8.515 33.725 11.264 11.264 2.493 23.363 4.224 35.773 5.12 6.851 0.517 13.891 0.768 20.864 0.768s14.014-0.256 20.931-0.768c12.416-0.896 24.576-2.627 35.84-5.12 12.605-2.75 24.125-6.656 33.664-11.264 5.31 3.907 8.059 7.747 8.059 11.264s-2.883 7.49-8.059 11.397c-2.944 2.11-6.595 4.219-11.075 6.4-4.224 1.982-9.026 3.774-14.525 5.499-16.64 5.12-38.723 8.643-64.963 8.643s-48.322-3.523-64.962-8.643c-5.504-1.725-10.117-3.645-14.403-5.499-4.357-2.114-8.13-4.224-11.14-6.4-4.926-4.034-7.87-7.941-7.87-11.397 0.01-3.523 2.954-7.363 8.14-11.264z m92.8 134.912v1.28h-2.438c-60.093-0.067-98.493-19.077-98.493-32.067 0-3.522 2.944-7.49 8.13-11.392 22.846 11.392 56.833 17.28 90.363 17.28h2.438v24.899z m4.925-62.592c-3.267 4.864-4.992 10.24-4.992 16.128v1.152h-2.437c-26.174 0-48.323-3.523-64.963-8.643-5.243-1.853-10.045-3.578-14.203-5.632-4.357-2.109-8.13-4.224-11.136-6.4-5.186-3.906-8.13-7.869-8.13-11.392s2.944-7.362 8.13-11.264c9.6 4.736 21.12 8.51 33.792 11.264 11.331 2.494 23.424 4.22 35.84 5.12 6.851 0.512 13.891 0.896 20.736 0.896 5.248 0 10.435-0.128 15.488-0.517-3.261 2.888-6.077 6.027-8.125 9.288z m15.293 62.336c0-3.523 2.883-7.363 8.131-11.264 5.76 2.883 12.35 5.376 19.39 7.613 4.607 1.347 9.343 2.627 14.274 3.774 1.987 0.384 4.03 0.896 6.016 1.28 6.528 1.157 13.25 2.114 20.096 3.01 3.267 0.256 6.528 0.64 9.728 0.896a284.157 284.157 0 0 0 41.723 0c12.354-0.896 24.642-2.626 35.84-5.12 12.544-2.749 24.064-6.656 33.664-11.264 5.248 3.907 8.13 7.747 8.13 11.264s-2.882 7.363-8.13 11.392c-2.683 2.115-6.4 4.224-10.752 6.4-4.224 1.987-9.027 3.779-14.53 5.504-16.64 4.998-38.723 8.643-64.897 8.643-26.24 0-48.384-3.645-64.962-8.643-4.93-1.469-9.41-3.266-13.312-4.992-0.384-0.256-0.768-0.517-1.219-0.64a62.809 62.809 0 0 1-11.07-6.4c-0.767-0.517-1.346-1.024-1.92-1.474-3.967-3.39-6.015-6.656-6.21-9.6 0.01-0.123 0.01-0.251 0.01-0.379z m98.694 78.592c-60.227 0-98.494-18.883-98.494-32 0-3.523 2.883-7.49 8.064-11.264 22.912 11.397 56.832 17.157 90.43 17.157 33.536 0 67.522-5.76 90.368-17.157 5.242 3.907 8.125 7.747 8.125 11.264 0.067 12.99-38.333 32-98.493 32zM393.6 572.99v45.506c0 3.773 3.005 6.723 6.784 6.723h44.672c3.779 0 6.85-3.006 6.85-6.723v-45.373c0-3.774-3.01-6.723-6.85-6.723h-44.672v-0.128c-3.712 0-6.784 3.01-6.784 6.717z m-85.888-38.078v83.584c0 3.65 3.005 6.656 6.784 6.656h44.739c3.712 0 6.784-3.005 6.784-6.723v-83.522a6.743 6.743 0 0 0-6.784-6.779h-44.739a6.747 6.747 0 0 0-6.784 6.784z" fill="" p-id="719"></path></svg>
