<?xml version="1.0" standalone="no"?><!DOCTYPE svg PUBLIC "-//W3C//DTD SVG 1.1//EN" "http://www.w3.org/Graphics/SVG/1.1/DTD/svg11.dtd"><svg t="1667784413164" class="icon" viewBox="0 0 1024 1024" version="1.1" xmlns="http://www.w3.org/2000/svg" p-id="662" xmlns:xlink="http://www.w3.org/1999/xlink" width="200" height="200"><path d="M66.56 1000.448c-17.92 0-32.768-14.848-32.768-32.768V128c0-17.92 14.848-32.768 32.768-32.768 17.92 0 32.768 14.848 32.768 32.768v806.912H906.24c17.92 0 32.768 14.848 32.768 32.768s-14.848 32.768-32.768 32.768H66.56z" p-id="663"></path><path d="M851.968 303.104c-6.144-5.632-13.824-8.704-22.528-8.704-9.216 0-17.92 3.584-24.064 10.24l-225.28 255.488-178.176-80.384c-4.096-2.048-8.704-3.072-13.312-3.072-9.728 0-18.944 4.096-25.088 11.776l-211.968 252.928c-5.12 6.144-7.68 13.312-7.68 20.992 0 17.92 14.848 32.768 32.768 32.768 9.728 0 18.944-4.608 25.088-11.776l196.096-233.984 177.664 80.384c4.096 2.048 8.704 3.072 13.824 3.072 9.216 0 18.432-4.096 24.576-11.264l240.64-273.408c11.264-13.312 10.24-33.28-2.56-45.056zM309.248 403.968c42.496 0 76.8-34.304 76.8-76.8s-34.304-76.8-76.8-76.8-76.8 34.304-76.8 76.8c0 20.48 8.192 39.936 22.528 54.272 14.336 14.336 33.792 22.528 54.272 22.528z" p-id="664"></path><path d="M457.216 750.08m-44.544 0a44.544 44.544 0 1 0 89.088 0 44.544 44.544 0 1 0-89.088 0Z" p-id="665"></path><path d="M838.144 583.168c-34.816 0-62.976 28.16-62.976 62.976s28.16 62.976 62.976 62.976S901.12 680.96 901.12 646.144s-28.16-62.976-62.976-62.976z" p-id="666"></path></svg>